<svg fill="none" height="512" viewBox="0 0 24 24" width="512"
    xmlns="http://www.w3.org/2000/svg">
    <g fill="rgb(255,255,255)">
        <path d="m21.928 11.607c-.202-.488-.635-.605-.928-.633v-2.974c0-1.103-.897-2-2-2h-6v-1.39c.305-.274.5-.668.5-1.11 0-.39782-.158-.77936-.4393-1.06066s-.6629-.43934-1.0607-.43934-.7794.15804-1.0607.43934-.4393.66284-.4393 1.06066c0 .442.195.836.5 1.11v1.39h-5.99999c-1.103 0-2 .897-2 2v2.997l-.082.006c-.25203.0182-.48783.1311-.65999.3161-.17216.1849-.26791.4282-.26801.6809v2c0 .2652.10535.5196.29289.7071s.44189.2929.70711.2929h.01v5c0 1.103.897 2 2 2h13.99999c1.103 0 2-.897 2-2v-5c.2652 0 .5196-.1054.7071-.2929s.2929-.4419.2929-.7071v-1.938c.0115-.1552-.0131-.3109-.072-.455zm-16.92799 8.393v-12h13.99999l.001 3.996-.001.004v2l.001.005.001 5.995z"/>
        <path d="m8 16h8v2h-8z"/>
        <path d="m15.5 14c.8284 0 1.5-.8954 1.5-2s-.6716-2-1.5-2-1.5.8954-1.5 2 .6716 2 1.5 2z"/>
        <path d="m8.5 14c.82843 0 1.5-.8954 1.5-2s-.67157-2-1.5-2-1.5.8954-1.5 2 .67157 2 1.5 2z"/>
    </g>
</svg>